<svg width="24" height="24" viewBox="0 0 24 24" fill="none" xmlns="http://www.w3.org/2000/svg">
<path fill-rule="evenodd" clip-rule="evenodd" d="M19.9058 10.3537C20.3154 8.76608 20 7.32624 19.2234 6.17729C18.3696 4.91407 16.9891 4.04258 15.5055 3.65319C14.0193 3.26312 12.3655 3.33961 10.9388 4.05705C9.56495 4.74796 8.44537 6.01299 7.90652 7.91232C5.753 8.41173 4.39714 9.90699 3.98364 11.6073C4.50204 10.7113 5.2171 10.0599 6.04064 9.64436C7.27016 9.02396 8.68175 8.95729 9.94455 9.28225C11.2044 9.60643 12.3935 10.3406 13.1506 11.4254C13.8156 12.3781 14.1205 13.5686 13.8687 14.8769C14.7809 15.1567 15.4543 15.8154 15.819 16.6113C15.9565 16.9116 16.0513 17.2344 16.0989 17.5659C16.8869 17.576 17.6095 17.584 18.1711 17.5842C19.5941 17.6649 20.7147 17.3163 21.5039 16.6596C22.2982 15.9987 22.6961 15.0744 22.7449 14.1432C22.8323 12.4723 21.786 10.7289 19.9058 10.3537Z" fill="black"/>
<path fill-rule="evenodd" clip-rule="evenodd" d="M12.8225 14.9453C13.0336 13.8886 12.7779 12.9271 12.2203 12.1576C11.5854 11.2815 10.5882 10.6885 9.5317 10.4266C8.47272 10.1642 7.28897 10.218 6.2579 10.7191C5.28345 11.1927 4.49012 12.0454 4.08561 13.2973C2.08949 13.8136 1.05888 15.5052 1.27933 17.1463C1.39415 18.0009 1.84859 18.8102 2.63321 19.3781C3.41614 19.9448 4.4839 20.2415 5.79162 20.1704C6.50827 20.1315 8.07199 20.1514 9.47044 20.1693C10.1705 20.1782 10.8292 20.1866 11.3195 20.1869C12.6889 20.2602 13.7151 19.7942 14.2787 18.9714C14.8281 18.1693 14.8433 17.1564 14.4579 16.3462C14.1522 15.7033 13.5874 15.1713 12.8225 14.9453Z" fill="black"/>
</svg>
