<svg width="24" height="24" viewBox="0 0 24 24" fill="none" xmlns="http://www.w3.org/2000/svg">
<path fill-rule="evenodd" clip-rule="evenodd" d="M10.3217 4.49555C10.8836 5.00564 10.745 5.78317 10.4919 6.34441L10.4914 6.34549C10.1187 7.16796 9.91434 8.06836 9.92192 9.02016L9.92194 9.02266C9.93705 12.5473 12.9797 15.5948 16.7541 15.7439C17.3102 15.7663 17.8421 15.7291 18.3579 15.6399C18.7004 15.5797 19.0353 15.5692 19.3365 15.637C19.6416 15.7057 19.9566 15.8676 20.1552 16.1814C20.3554 16.4977 20.3647 16.8532 20.2894 17.1592C20.2157 17.4587 20.0545 17.749 19.8477 18.0197C18.0495 20.3951 15.0643 21.8902 11.7421 21.7511C7.0315 21.5511 3.05447 17.9076 2.72469 13.3585C2.42353 9.32665 4.90252 5.83414 8.47285 4.38035C9.04533 4.14623 9.79867 4.02066 10.3217 4.49555Z" fill="black"/>
<path d="M19.9957 5.68422L20.5655 5.79787C20.5752 5.79981 20.5752 5.81371 20.5655 5.81565L19.9957 5.9293C18.9186 6.14412 18.0763 6.98548 17.8604 8.06231L17.7473 8.62613C17.7454 8.63585 17.7315 8.63585 17.7295 8.62613L17.6164 8.06231C17.4005 6.98548 16.5582 6.14412 15.4812 5.9293L14.9113 5.81565C14.9016 5.81371 14.9016 5.79981 14.9113 5.79787L15.4812 5.68422C16.5582 5.4694 17.4005 4.62804 17.6164 3.55121L17.7295 2.98739C17.7315 2.97767 17.7454 2.97767 17.7473 2.98739L17.8604 3.55121C18.0764 4.62804 18.9186 5.4694 19.9957 5.68422Z" fill="black"/>
<path fill-rule="evenodd" clip-rule="evenodd" d="M17.0626 2.85365C17.2107 2.11545 18.266 2.11541 18.4141 2.85365L18.5272 3.41749C18.6892 4.22511 19.3209 4.85613 20.1287 5.01724L20.6985 5.13089C21.4377 5.27832 21.4377 6.33523 20.6985 6.48266L20.1287 6.59631C19.3209 6.75742 18.6892 7.38844 18.5272 8.19607L18.4141 8.75989C18.266 9.49811 17.2107 9.49812 17.0626 8.7599L16.9495 8.19607C16.7876 7.38844 16.1559 6.75742 15.3481 6.59631L14.7783 6.48266C14.0391 6.33523 14.0391 5.27832 14.7783 5.13089L15.3481 5.01724C16.1559 4.85613 16.7876 4.22511 16.9495 3.41748L17.0626 2.85365Z" fill="black"/>
<path fill-rule="evenodd" clip-rule="evenodd" d="M15.2807 9.26705C15.3953 8.69437 16.2122 8.69433 16.3269 9.26705L16.4144 9.70446C16.5398 10.331 17.0288 10.8205 17.6541 10.9455L18.0951 11.0337C18.6673 11.1481 18.6673 11.968 18.0951 12.0824L17.6541 12.1706C17.0288 12.2955 16.5398 12.7851 16.4144 13.4116L16.3269 13.849C16.2122 14.4217 15.3953 14.4217 15.2807 13.849L15.1932 13.4116C15.0678 12.7851 14.5788 12.2955 13.9535 12.1706L13.5124 12.0824C12.9402 11.968 12.9402 11.1481 13.5124 11.0337L13.9535 10.9455C14.5788 10.8205 15.0678 10.331 15.1932 9.70446L15.2807 9.26705Z" fill="black"/>
</svg>
