<svg width="24" height="24" viewBox="0 0 24 24" fill="none" xmlns="http://www.w3.org/2000/svg">
<path fill-rule="evenodd" clip-rule="evenodd" d="M20.2234 10.4738C21.0045 11.5614 21.3352 12.9242 20.9603 14.4248C22.8182 14.8303 23.8519 16.5035 23.7541 18.1113C23.699 19.0173 23.2872 19.9135 22.4755 20.5521C21.6703 21.1854 20.538 21.5151 19.1157 21.4388C18.4152 21.4386 17.4661 21.4267 16.4535 21.414C14.4211 21.3886 12.133 21.3599 11.0856 21.4158C9.2384 21.5145 7.7569 21.1005 6.68431 20.334C5.60921 19.5657 4.98952 18.4726 4.83736 17.3178C4.5418 15.0746 6.00729 12.7622 8.85101 12.1094C9.40123 10.3167 10.524 9.11734 11.8982 8.46006C13.3328 7.7739 14.991 7.70049 16.4796 8.0695C17.9652 8.43775 19.3553 9.26526 20.2234 10.4738Z" fill="black"/>
<path fill-rule="evenodd" clip-rule="evenodd" d="M4.67543 2.91959C5.06038 2.76664 5.49642 2.95471 5.64937 3.33965L6.08224 4.42912C6.23519 4.81406 6.04712 5.25011 5.66218 5.40306C5.27724 5.556 4.84119 5.36794 4.68825 4.98299L4.25537 3.89352C4.10242 3.50858 4.29049 3.07254 4.67543 2.91959ZM10.3588 3.05174C10.7401 3.21365 10.9179 3.65398 10.756 4.03524L10.3231 5.05455C10.1612 5.43581 9.72087 5.61362 9.33961 5.45171C8.95835 5.2898 8.78054 4.84948 8.94245 4.46822L9.37533 3.4489C9.53724 3.06765 9.97756 2.88983 10.3588 3.05174ZM5.92047 6.06378C7.48793 5.43159 9.21042 5.84151 10.3366 6.96023L10.9981 7.61742L10.1596 8.158C9.25206 8.74309 8.60123 9.6517 8.33934 10.6993L8.21907 11.1804L7.6709 11.3631C6.87984 11.6268 6.14955 12.0461 5.52302 12.5963L4.84721 13.1899L4.3528 12.619C4.05616 12.2765 3.81155 11.8794 3.63547 11.4362C2.79504 9.32097 3.8122 6.9141 5.92047 6.06378ZM0.648956 6.96499C0.813178 6.58472 1.25457 6.40958 1.63484 6.5738L2.64627 7.01059C3.02654 7.17481 3.20168 7.61621 3.03746 7.99648C2.87323 8.37675 2.43184 8.55189 2.05157 8.38767L1.04014 7.95087C0.659874 7.78665 0.484734 7.34525 0.648956 6.96499ZM2.94993 11.7168C3.10487 12.101 2.91905 12.538 2.53491 12.6929L1.49584 13.112C1.11169 13.2669 0.674684 13.0811 0.519749 12.697C0.364814 12.3128 0.550627 11.8758 0.934773 11.7209L1.97384 11.3018C2.35799 11.1469 2.795 11.3327 2.94993 11.7168Z" fill="black"/>
</svg>
