<svg width="24" height="24" viewBox="0 0 24 24" fill="none" xmlns="http://www.w3.org/2000/svg">
<g clip-path="url(#clip0_267_608)">
<path fill-rule="evenodd" clip-rule="evenodd" d="M20.7022 12.0812C21.0346 10.639 20.7107 9.3284 19.9674 8.28292C19.1353 7.11263 17.8122 6.31588 16.4042 5.96239C14.9929 5.60807 13.4199 5.67938 12.0562 6.34353C10.7548 6.97729 9.68882 8.13115 9.15977 9.85136C6.47484 10.4964 5.07683 12.7381 5.36285 14.9286C5.51032 16.0581 6.1063 17.1238 7.13402 17.8709C8.15882 18.6159 9.56864 19.0146 11.3184 18.9194C12.3037 18.8658 14.4557 18.8933 16.3699 18.9177C17.3246 18.9299 18.2201 18.9413 18.8823 18.9415C20.2285 19.0148 21.3086 18.6983 22.0818 18.0818C22.8625 17.4593 23.2623 16.583 23.3191 15.6944C23.4192 14.1286 22.4471 12.5045 20.7022 12.0812Z" fill="black"/>
<path fill-rule="evenodd" clip-rule="evenodd" d="M6.63836 1.09155C6.17276 1.49494 6.37452 2.31592 6.5333 2.63943L6.53378 2.64041C6.73734 3.05326 6.85083 3.50586 6.85072 3.98593L6.85072 3.98819C6.8573 5.76686 5.2311 7.31346 3.21638 7.4048C2.91783 7.41854 2.63251 7.40215 2.35578 7.35958L2.35803 7.35993C2.13288 7.32461 1.89245 7.31632 1.66291 7.36682C1.42767 7.41856 1.16634 7.54312 1.00181 7.79147C0.837939 8.03884 0.838737 8.30551 0.895882 8.51627C0.951758 8.72236 1.06836 8.91079 1.20423 9.07492C1.82788 9.8349 2.86042 10.7739 3.84816 11.1356C4.112 11.2322 4.4142 11.1734 4.61185 10.9869L4.77336 10.8346C5.45488 10.1917 6.15271 9.4101 7.11353 9.22719L7.75069 9.1059C7.98158 9.06195 8.17261 8.91499 8.25854 8.71523L8.51485 8.11942C8.8884 7.25107 9.55279 6.51112 10.414 6.00436L11.2151 5.53291C11.4612 5.38811 11.5818 5.11916 11.5172 4.85953C11.1039 3.19953 9.75008 1.60065 8.04193 0.96405C7.68584 0.830852 7.08059 0.708409 6.63836 1.09155Z" fill="black"/>
<path fill-rule="evenodd" clip-rule="evenodd" d="M11.3884 19.5568C11.748 19.7625 11.8727 20.2207 11.667 20.5802L10.5568 22.5212C10.3511 22.8807 9.8929 23.0055 9.53336 22.7998C9.17381 22.5941 9.04907 22.1359 9.25474 21.7764L10.365 19.8354C10.5707 19.4759 11.0289 19.3511 11.3884 19.5568Z" fill="black"/>
<path fill-rule="evenodd" clip-rule="evenodd" d="M16.9885 19.6569C17.3481 19.8626 17.4728 20.3208 17.2671 20.6803L16.1569 22.6213C15.9512 22.9808 15.493 23.1056 15.1335 22.8999C14.7739 22.6942 14.6492 22.236 14.8548 21.8765L15.9651 19.9355C16.1708 19.576 16.629 19.4512 16.9885 19.6569Z" fill="black"/>
<path fill-rule="evenodd" clip-rule="evenodd" d="M13.6072 20.8099C13.9686 21.0123 14.0975 21.4694 13.8951 21.8308L13.3488 22.8062C13.1464 23.1676 12.6893 23.2965 12.3279 23.0941C11.9666 22.8917 11.8377 22.4347 12.0401 22.0733L12.5864 21.0978C12.7888 20.7364 13.2458 20.6075 13.6072 20.8099Z" fill="black"/>
<path fill-rule="evenodd" clip-rule="evenodd" d="M19.4837 20.921C19.8451 21.1234 19.974 21.5805 19.7716 21.9419L19.2253 22.9173C19.0229 23.2787 18.5658 23.4076 18.2044 23.2052C17.843 23.0028 17.7141 22.5458 17.9165 22.1844L18.4628 21.2089C18.6652 20.8475 19.1223 20.7186 19.4837 20.921Z" fill="black"/>
</g>
<defs>
<clipPath id="clip0_267_608">
<rect width="24" height="24" fill="white"/>
</clipPath>
</defs>
</svg>
