<svg width="24" height="24" viewBox="0 0 24 24" fill="none" xmlns="http://www.w3.org/2000/svg">
<rect width="24" height="24" fill="#EAEAEA"/>
<g id="Weather">
<rect x="-264" y="-795" width="1960" height="1836" rx="48" fill="white"/>
<g id="rainy-day">
<rect x="-184" y="-16" width="280" height="56" rx="12" fill="#F5F5F5"/>
<g id="style=fill">
<g id="rainy-day_2">
<path id="vector" fill-rule="evenodd" clip-rule="evenodd" d="M4.96793 1.24098C5.30579 1.11343 5.67969 1.29322 5.80305 1.64253L6.1402 2.59724C6.26356 2.94655 6.08967 3.33312 5.75181 3.46067C5.41395 3.58821 5.04005 3.40843 4.91669 3.05911L4.57953 2.1044C4.45617 1.75509 4.63006 1.36852 4.96793 1.24098ZM9.74566 1.49473C10.0726 1.64966 10.2162 2.0493 10.0664 2.38736L9.67952 3.26017C9.52967 3.59823 9.14312 3.74669 8.81614 3.59177C8.48916 3.43684 8.34557 3.0372 8.49542 2.69913L8.88229 1.82633C9.03214 1.48827 9.41868 1.3398 9.74566 1.49473ZM5.93729 3.99618C7.27477 3.48318 8.71825 3.88306 9.64176 4.88644L10.2 5.49291L9.50733 5.92657C8.70977 6.42592 8.11862 7.23726 7.86579 8.17054L7.76936 8.52647L7.3342 8.66251C6.64112 8.87918 5.99699 9.23705 5.43973 9.71504L4.8744 10.2L4.45918 9.67514C4.21705 9.36909 4.02012 9.01673 3.8821 8.62592C3.22334 6.76051 4.13842 4.68616 5.93729 3.99618ZM1.48492 4.6606C1.63675 4.32349 2.02416 4.17745 2.35023 4.33443L3.18772 4.73762C3.51378 4.89459 3.65503 5.29513 3.5032 5.63225C3.35137 5.96936 2.96396 6.1154 2.63789 5.95842L1.80041 5.55524C1.47434 5.39826 1.3331 4.99772 1.48492 4.6606ZM3.34282 8.83643C3.46792 9.18508 3.29597 9.57258 2.95875 9.70192L2.07791 10.0398C1.74069 10.1691 1.3659 9.99134 1.24079 9.64269C1.11569 9.29404 1.28764 8.90654 1.62486 8.7772L2.5057 8.43934C2.84292 8.31 3.21771 8.48778 3.34282 8.83643Z" fill="black"/>
<path id="vector_2" fill-rule="evenodd" clip-rule="evenodd" d="M19.9847 11.6292C20.3171 10.187 19.9932 8.87638 19.2498 7.8309C18.4178 6.66061 17.0947 5.86386 15.6867 5.51036C14.2754 5.15604 12.7024 5.22735 11.3386 5.8915C10.0373 6.52527 8.97129 7.67912 8.44224 9.39933C5.75731 10.0444 4.3593 12.286 4.64532 14.4766C4.7928 15.6061 5.38877 16.6718 6.41649 17.4189C7.44129 18.1638 8.85111 18.5626 10.6008 18.4674C11.5861 18.4138 13.7381 18.4413 15.6524 18.4657C16.6071 18.4779 17.5026 18.4893 18.1648 18.4895C19.511 18.5628 20.591 18.2463 21.3642 17.6298C22.1449 17.0073 22.5448 16.1309 22.6016 15.2423C22.7017 13.6765 21.7296 12.0524 19.9847 11.6292Z" fill="black"/>
<path id="line" fill-rule="evenodd" clip-rule="evenodd" d="M10.6708 19.1048C11.0303 19.3104 11.1551 19.7686 10.9494 20.1282L9.83912 22.0691C9.63345 22.4287 9.17525 22.5534 8.81571 22.3478C8.45616 22.1421 8.33142 21.6839 8.53709 21.3243L9.64736 19.3834C9.85303 19.0238 10.3112 18.8991 10.6708 19.1048Z" fill="black"/>
<path id="line_2" fill-rule="evenodd" clip-rule="evenodd" d="M16.2707 19.2049C16.6303 19.4105 16.755 19.8687 16.5494 20.2283L15.4391 22.1692C15.2334 22.5288 14.7752 22.6535 14.4157 22.4479C14.0561 22.2422 13.9314 21.784 14.1371 21.4244L15.2473 19.4835C15.453 19.1239 15.9112 18.9992 16.2707 19.2049Z" fill="black"/>
<path id="line_3" fill-rule="evenodd" clip-rule="evenodd" d="M12.8896 20.3579C13.251 20.5603 13.3799 21.0174 13.1775 21.3787L12.6311 22.3542C12.4287 22.7156 11.9717 22.8445 11.6103 22.6421C11.2489 22.4397 11.12 21.9827 11.3224 21.6213L11.8687 20.6458C12.0711 20.2844 12.5282 20.1555 12.8896 20.3579Z" fill="black"/>
<path id="line_4" fill-rule="evenodd" clip-rule="evenodd" d="M18.7659 20.469C19.1273 20.6714 19.2562 21.1284 19.0538 21.4898L18.5075 22.4653C18.3051 22.8267 17.848 22.9556 17.4866 22.7532C17.1252 22.5508 16.9964 22.0937 17.1988 21.7323L17.7451 20.7569C17.9475 20.3955 18.4045 20.2666 18.7659 20.469Z" fill="black"/>
</g>
</g>
</g>
</g>
</svg>
