<svg width="24" height="24" viewBox="0 0 24 24" fill="none" xmlns="http://www.w3.org/2000/svg">
<path fill-rule="evenodd" clip-rule="evenodd" d="M12 1.25C12.4142 1.25 12.75 1.58579 12.75 2V3.73335C12.75 4.14756 12.4142 4.48335 12 4.48335C11.5858 4.48335 11.25 4.14756 11.25 3.73335V2C11.25 1.58579 11.5858 1.25 12 1.25ZM19.5303 4.46968C19.8232 4.76258 19.8232 5.23745 19.5303 5.53034L18.372 6.68868C18.0791 6.98157 17.6042 6.98157 17.3113 6.68868C17.0184 6.39578 17.0184 5.92091 17.3113 5.62802L18.4697 4.46968C18.7626 4.17679 19.2374 4.17679 19.5303 4.46968ZM4.46967 4.46968C4.76256 4.17679 5.23744 4.17679 5.53033 4.46968L6.68866 5.62802C6.98156 5.92091 6.98156 6.39578 6.68866 6.68868C6.39577 6.98157 5.9209 6.98157 5.628 6.68868L4.46967 5.53034C4.17678 5.23745 4.17678 4.76258 4.46967 4.46968ZM1.25 12C1.25 11.5858 1.58579 11.25 2 11.25H3.66667C4.08088 11.25 4.41667 11.5858 4.41667 12C4.41667 12.4142 4.08088 12.75 3.66667 12.75H2C1.58579 12.75 1.25 12.4142 1.25 12ZM19.5833 12C19.5833 11.5858 19.9191 11.25 20.3333 11.25H22C22.4142 11.25 22.75 11.5858 22.75 12C22.75 12.4142 22.4142 12.75 22 12.75H20.3333C19.9191 12.75 19.5833 12.4142 19.5833 12ZM6.68866 17.3113C6.98156 17.6042 6.98156 18.0791 6.68866 18.372L5.447 19.6137C5.1541 19.9066 4.67923 19.9066 4.38634 19.6137C4.09344 19.3208 4.09344 18.8459 4.38634 18.553L5.628 17.3114C5.9209 17.0185 6.39577 17.0185 6.68866 17.3113ZM17.3113 17.3113C17.6042 17.0185 18.0791 17.0185 18.372 17.3114L19.5303 18.4697C19.8232 18.7626 19.8232 19.2374 19.5303 19.5303C19.2374 19.8232 18.7625 19.8232 18.4697 19.5303L17.3113 18.372C17.0184 18.0791 17.0184 17.6042 17.3113 17.3113ZM12 19.5833C12.4142 19.5833 12.75 19.9191 12.75 20.3333V22C12.75 22.4142 12.4142 22.75 12 22.75C11.5858 22.75 11.25 22.4142 11.25 22V20.3333C11.25 19.9191 11.5858 19.5833 12 19.5833Z" fill="black"/>
<path fill-rule="evenodd" clip-rule="evenodd" d="M6.25 12C6.25 8.82436 8.82436 6.25 12 6.25C15.1756 6.25 17.75 8.82436 17.75 12C17.75 15.1756 15.1756 17.75 12 17.75C8.82436 17.75 6.25 15.1756 6.25 12Z" fill="black"/>
</svg>
