<svg width="24" height="24" viewBox="0 0 24 24" fill="none" xmlns="http://www.w3.org/2000/svg">
<path d="M6.98176 13.1957H9.60632V19.9217C9.60632 20.912 10.7275 21.379 11.322 20.6317L17.7518 12.5979C18.3124 11.8972 17.8622 10.8043 17.0128 10.8043H14.3883V4.07826C14.3883 3.08804 13.2671 2.62096 12.6725 3.36829L6.24282 11.4021C5.69072 12.1028 6.14089 13.1957 6.98176 13.1957Z" fill="black"/>
<path fill-rule="evenodd" clip-rule="evenodd" d="M14.0408 2.379C14.6756 2.64237 15.1383 3.28014 15.1383 4.07831V10.0543H17.0128C17.7973 10.0543 18.363 10.5665 18.6045 11.1527C18.8452 11.7369 18.8069 12.4798 18.3374 13.0665L11.909 21.0987L11.908 21.0998C11.3912 21.7485 9.9538 21.6211 9.9538 21.6211C9.31903 21.3577 8.85633 20.7199 8.85633 19.9218V13.9458H6.98177C6.19782 13.9458 5.63632 13.4296 5.39647 12.8474C5.15722 12.2666 5.19056 11.5258 5.65374 10.938L5.65725 10.9335L12.0856 2.9014L12.0863 2.90055C12.6032 2.2516 13.3942 2.11073 14.0408 2.379Z" fill="black"/>
<path fill-rule="evenodd" clip-rule="evenodd" d="M7.29637 14.7565C7.57975 14.9283 7.67023 15.2973 7.49846 15.5807L6.91817 16.538H7.42294C7.75998 16.538 8.00257 16.7488 8.11223 16.9741C8.22127 17.1982 8.22971 17.4882 8.07738 17.7395L7.12096 19.3173C6.94919 19.6007 6.58022 19.6912 6.29684 19.5194C6.01347 19.3476 5.92299 18.9787 6.09476 18.6953L6.67504 17.738H6.17028C5.83323 17.738 5.59065 17.5272 5.48099 17.3018C5.37194 17.0777 5.36351 16.7878 5.51583 16.5365L6.47226 14.9586C6.64403 14.6753 7.013 14.5848 7.29637 14.7565Z" fill="black"/>
<path fill-rule="evenodd" clip-rule="evenodd" d="M17.6587 4.01363C17.9421 4.1854 18.0325 4.55436 17.8608 4.83774L17.2805 5.79506H17.7852C18.1223 5.79506 18.3649 6.00584 18.4745 6.2312C18.5836 6.45529 18.592 6.74525 18.4397 6.99654L17.4833 8.57441C17.3115 8.85779 16.9425 8.94826 16.6591 8.77649C16.3758 8.60472 16.2853 8.23575 16.4571 7.95238L17.0373 6.99506H16.5326C16.1955 6.99506 15.953 6.78428 15.8433 6.55892C15.7342 6.33483 15.7258 6.04487 15.8781 5.79357L16.8346 4.21571C17.0063 3.93233 17.3753 3.84186 17.6587 4.01363Z" fill="black"/>
</svg>
