<svg width="40" height="40" viewBox="0 0 40 40" fill="none" xmlns="http://www.w3.org/2000/svg">
<rect width="40" height="40" rx="20" fill="#F5F5F5"/>
<ellipse cx="11.3737" cy="10.5405" rx="3.04045" ry="3.04045" fill="#222222"/>
<path d="M22.2516 32.7358C19.2683 32.7358 16.7949 31.754 14.8312 29.7903C12.8865 27.8078 11.9141 25.3438 11.9141 22.3983C11.9141 19.4528 12.8865 16.9982 14.8312 15.0346C16.7949 13.052 19.2683 12.0608 22.2516 12.0608C24.0453 12.0608 25.7069 12.4856 27.2363 13.3353C28.4522 14.0108 29.4593 14.8713 30.2575 15.9167C30.5981 16.3629 30.4325 16.9923 29.9457 17.2718L27.333 18.772C26.8454 19.052 26.2305 18.8618 25.8418 18.4554C25.5359 18.1356 25.17 17.8639 24.7439 17.6402C24.0076 17.2248 23.1768 17.0171 22.2516 17.0171C20.6656 17.0171 19.3816 17.5175 18.3998 18.5182C17.4369 19.5 16.9554 20.7934 16.9554 22.3983C16.9554 24.0032 17.4369 25.306 18.3998 26.3067C19.3816 27.2886 20.6656 27.7795 22.2516 27.7795C23.1768 27.7795 24.0076 27.5812 24.7439 27.1847C25.1711 26.9498 25.5379 26.6665 25.8442 26.3349C26.2301 25.9173 26.8531 25.7233 27.3448 26.0089L29.9575 27.526C30.4394 27.8057 30.6039 28.4294 30.2692 28.8747C29.4691 29.9392 28.4581 30.8108 27.2363 31.4897C25.7258 32.3204 24.0642 32.7358 22.2516 32.7358Z" fill="#222222"/>
</svg>
