<svg width="30" height="30" viewBox="0 0 30 30" fill="none" xmlns="http://www.w3.org/2000/svg">
<path fill-rule="evenodd" clip-rule="evenodd" d="M12.1771 8.37732C10.6703 9.10847 9.40036 10.4861 8.83094 12.749C8.71962 13.1913 8.35414 13.5387 7.89653 13.6196C4.55295 14.2104 3.11432 16.7163 3.39386 18.896C3.53497 19.9962 4.11309 21.0589 5.17446 21.8293C6.23816 22.6014 7.84389 23.1182 10.0831 22.9969C11.612 22.9142 14.9715 22.9565 17.8585 22.9929C19.2539 23.0105 20.5389 23.0266 21.4535 23.0266H21.4796L21.5058 23.0281C23.1596 23.1228 24.2457 22.726 24.9131 22.1901C25.5787 21.6556 25.912 20.9174 25.9536 20.149C26.0386 18.5817 24.9272 16.985 22.9357 16.9077C22.1226 16.8762 21.5912 16.0476 21.8719 15.3023C22.574 13.4382 22.2552 11.8577 21.3908 10.6233C20.5036 9.35626 18.9977 8.39989 17.2753 7.96358C15.5565 7.52815 13.71 7.63349 12.1771 8.37732ZM23.8372 15.171C24.4077 13.0428 23.9705 11.1128 22.8917 9.57227C21.7059 7.87887 19.7877 6.70983 17.7253 6.18737C15.6594 5.66402 13.3603 5.76655 11.3772 6.72882C9.46725 7.6556 7.91212 9.35203 7.16407 11.8979C3.1936 12.7863 1.17804 16.0227 1.57643 19.1291C1.78109 20.7249 2.62368 22.2419 4.0981 23.3122C5.57018 24.3807 7.6153 24.9656 10.1821 24.8266C11.6515 24.747 14.8626 24.7878 17.7091 24.8239C19.1254 24.8418 20.4514 24.8587 21.4278 24.859C23.4059 24.9672 24.9636 24.4995 26.0604 23.6188C27.1638 22.7328 27.7157 21.4945 27.7833 20.2481C27.9044 18.0121 26.4527 15.6734 23.8372 15.171Z" fill="#101014"/>
</svg>
