<svg width="75" height="23" viewBox="0 0 75 23" fill="none" xmlns="http://www.w3.org/2000/svg">
<path d="M11.2435 22.268C9.79604 22.268 8.43796 21.9911 7.16923 21.4371C5.91837 20.8832 4.81047 20.1148 3.84552 19.132C2.89843 18.1491 2.15685 17.0144 1.62077 15.7278C1.10256 14.4234 0.843448 13.0206 0.843448 11.5196C0.843448 10.0364 1.10256 8.65152 1.62077 7.36492C2.15685 6.06045 2.89843 4.92574 3.84552 3.96079C4.7926 2.97797 5.89157 2.20958 7.14243 1.65563C8.41116 1.08381 9.77817 0.797899 11.2435 0.797899C12.5479 0.797899 13.7184 0.985528 14.7548 1.36079C15.7912 1.71817 16.8009 2.30787 17.7837 3.12986C17.9445 3.25495 18.0428 3.3979 18.0785 3.55873C18.1321 3.70168 18.1321 3.84464 18.0785 3.98759C18.0428 4.13055 17.9803 4.25564 17.8909 4.36285C17.8552 4.55942 17.7479 4.72024 17.5693 4.84533C17.4084 4.95255 17.2119 5.00615 16.9796 5.00615C16.7473 5.00615 16.515 4.91681 16.2827 4.73811C15.6036 4.13055 14.871 3.68381 14.0847 3.3979C13.2985 3.09412 12.3514 2.94223 11.2435 2.94223C10.1177 2.94223 9.05446 3.17454 8.05377 3.63914C7.07095 4.08588 6.20428 4.70237 5.45377 5.48863C4.70325 6.27488 4.11356 7.18623 3.68469 8.22266C3.27369 9.25908 3.06819 10.3581 3.06819 11.5196C3.06819 12.7168 3.27369 13.8337 3.68469 14.8701C4.11356 15.9065 4.70325 16.8179 5.45377 17.6041C6.20428 18.3904 7.07095 19.0069 8.05377 19.4536C9.05446 19.9003 10.1177 20.1237 11.2435 20.1237C12.1905 20.1237 13.093 19.9629 13.9507 19.6412C14.8084 19.3196 15.6304 18.8639 16.4167 18.2742C16.6668 18.0777 16.917 17.9972 17.1672 18.033C17.4352 18.0687 17.6586 18.1849 17.8373 18.3814C18.0339 18.5601 18.1321 18.8103 18.1321 19.132C18.1321 19.2928 18.1053 19.4357 18.0517 19.5608C17.9981 19.6859 17.9177 19.8199 17.8105 19.9629C16.8813 20.767 15.8538 21.3567 14.728 21.732C13.6201 22.0893 12.4586 22.268 11.2435 22.268ZM24.7121 22C23.9616 22 23.3005 21.8034 22.7286 21.4103C22.1568 20.9993 21.7101 20.4364 21.3884 19.7216C21.0668 19.0069 20.906 18.1849 20.906 17.2557V2.19172C20.906 1.8522 21.0042 1.58415 21.2008 1.38759C21.4152 1.17316 21.6922 1.06594 22.0317 1.06594C22.3534 1.06594 22.6125 1.17316 22.809 1.38759C23.0235 1.58415 23.1307 1.8522 23.1307 2.19172V17.2557C23.1307 17.9883 23.2737 18.5959 23.5596 19.0783C23.8633 19.543 24.2475 19.7753 24.7121 19.7753H25.3823C25.6682 19.7753 25.9005 19.8825 26.0792 20.0969C26.2579 20.2935 26.3472 20.5526 26.3472 20.8742C26.3472 21.2137 26.2132 21.4907 25.9451 21.7052C25.695 21.9017 25.3644 22 24.9534 22H24.7121ZM29.8877 22C29.5481 22 29.2712 21.9017 29.0567 21.7052C28.8423 21.4907 28.7351 21.2048 28.7351 20.8474V8.4907C28.7351 8.13331 28.8423 7.85633 29.0567 7.65977C29.2712 7.44533 29.5481 7.33812 29.8877 7.33812C30.2272 7.33812 30.4952 7.44533 30.6918 7.65977C30.9062 7.85633 31.0134 8.13331 31.0134 8.4907V20.8474C31.0134 21.2048 30.9062 21.4907 30.6918 21.7052C30.4952 21.9017 30.2272 22 29.8877 22ZM29.8609 4.6845C29.432 4.6845 29.0657 4.53261 28.7619 4.22883C28.4581 3.90718 28.3062 3.53192 28.3062 3.10306C28.3062 2.65632 28.4581 2.29 28.7619 2.00409C29.0835 1.71818 29.4499 1.57522 29.8609 1.57522C30.2718 1.57522 30.6292 1.71818 30.933 2.00409C31.2547 2.29 31.4155 2.65632 31.4155 3.10306C31.4155 3.53192 31.2636 3.90718 30.9598 4.22883C30.656 4.53261 30.2897 4.6845 29.8609 4.6845ZM55.0559 22C54.7164 22 54.4394 21.9017 54.225 21.7052C54.0106 21.4907 53.9034 21.2137 53.9034 20.8742V13.1814C53.9034 11.9484 53.5906 10.9924 52.9652 10.3134C52.3398 9.63434 51.5267 9.29482 50.526 9.29482C49.4717 9.29482 48.6051 9.65221 47.926 10.367C47.2649 11.0818 46.9343 12.0199 46.9343 13.1814H44.9776C44.9954 11.9842 45.2545 10.9388 45.7549 10.0453C46.2552 9.134 46.9432 8.42815 47.8188 7.92781C48.7123 7.42746 49.7219 7.17729 50.8477 7.17729C51.8841 7.17729 52.8044 7.41853 53.6085 7.901C54.4126 8.38348 55.0381 9.08039 55.4848 9.99173C55.9494 10.8852 56.1817 11.9484 56.1817 13.1814V20.8742C56.1817 21.2137 56.0745 21.4907 55.8601 21.7052C55.6456 21.9017 55.3776 22 55.0559 22ZM36.5611 22C36.2037 22 35.9178 21.9017 35.7033 21.7052C35.5068 21.4907 35.4085 21.2137 35.4085 20.8742V8.4907C35.4085 8.15118 35.5068 7.8742 35.7033 7.65977C35.9178 7.44533 36.2037 7.33812 36.5611 7.33812C36.9006 7.33812 37.1686 7.44533 37.3652 7.65977C37.5796 7.8742 37.6868 8.15118 37.6868 8.4907V20.8742C37.6868 21.2137 37.5796 21.4907 37.3652 21.7052C37.1686 21.9017 36.9006 22 36.5611 22ZM45.8085 22C45.4868 22 45.2188 21.9017 45.0044 21.7052C44.7899 21.4907 44.6827 21.2137 44.6827 20.8742V13.1814C44.6827 11.9484 44.3611 10.9924 43.7178 10.3134C43.0923 9.63434 42.2882 9.29482 41.3054 9.29482C40.2511 9.29482 39.3844 9.64328 38.7054 10.3402C38.0264 11.0371 37.6868 11.9484 37.6868 13.0742H36.1322C36.1679 11.9127 36.4181 10.8941 36.8827 10.0185C37.3473 9.12506 37.9906 8.42815 38.8126 7.92781C39.6346 7.42746 40.5727 7.17729 41.627 7.17729C42.6635 7.17729 43.5838 7.41853 44.3879 7.901C45.192 8.38348 45.8174 9.08039 46.2642 9.99173C46.7109 10.8852 46.9343 11.9484 46.9343 13.1814V20.8742C46.9343 21.2137 46.8271 21.4907 46.6126 21.7052C46.4161 21.9017 46.148 22 45.8085 22ZM66.2691 22.134C64.911 22.134 63.6959 21.8124 62.6237 21.1691C61.5516 20.5079 60.7028 19.6144 60.0773 18.4887C59.4519 17.3629 59.1392 16.0941 59.1392 14.6825C59.1392 13.2529 59.4608 11.9752 60.1041 10.8495C60.7653 9.72369 61.6588 8.83915 62.7845 8.19585C63.9103 7.53468 65.179 7.2041 66.5907 7.2041C67.9846 7.2041 69.2354 7.53468 70.3433 8.19585C71.4691 8.83915 72.3536 9.72369 72.9969 10.8495C73.6581 11.9752 73.9976 13.2529 74.0155 14.6825L73.1041 15.1381C73.1041 16.4605 72.8004 17.6488 72.1928 18.7031C71.6031 19.7574 70.7901 20.5972 69.7536 21.2227C68.7351 21.8302 67.5736 22.134 66.2691 22.134ZM66.5907 20.0969C67.5914 20.0969 68.476 19.8646 69.2443 19.4C70.0306 18.9175 70.6471 18.2653 71.0938 17.4433C71.5584 16.6213 71.7907 15.701 71.7907 14.6825C71.7907 13.646 71.5584 12.7258 71.0938 11.9216C70.6471 11.0996 70.0306 10.4474 69.2443 9.96493C68.476 9.48245 67.5914 9.24121 66.5907 9.24121C65.6079 9.24121 64.7144 9.48245 63.9103 9.96493C63.1241 10.4474 62.4986 11.0996 62.034 11.9216C61.5694 12.7258 61.3371 13.646 61.3371 14.6825C61.3371 15.701 61.5694 16.6213 62.034 17.4433C62.4986 18.2653 63.1241 18.9175 63.9103 19.4C64.7144 19.8646 65.6079 20.0969 66.5907 20.0969ZM72.8629 22C72.5413 22 72.2643 21.9017 72.032 21.7052C71.8175 21.4907 71.7103 21.2137 71.7103 20.8742V16.4515L72.2196 14.1196L74.0155 14.6825V20.8742C74.0155 21.2137 73.9083 21.4907 73.6938 21.7052C73.4794 21.9017 73.2024 22 72.8629 22Z" fill="currentColor"/>
</svg>
